<svg xmlns="http://www.w3.org/2000/svg" width="56" height="20" fill="none"><path stroke="#fff" stroke-linecap="round" stroke-linejoin="round" stroke-width="1.313" d="M18.855 10.08A9.08 9.08 0 0 0 1.108 7.368c-.074.236-.111.354-.108.502.003.12.04.269.093.377.065.132.166.233.369.435l9.711 9.711c.202.203.303.304.436.37a1 1 0 0 0 .376.092c.148.003.266-.034.503-.108a9.08 9.08 0 0 0 6.367-8.667"/><path stroke="#fff" stroke-linecap="round" stroke-linejoin="round" stroke-width="1.313" d="M2.204 7.941a9.08 9.08 0 0 1 9.71 9.71c-.027.377-.04.566-.15.682a.48.48 0 0 1-.371.139c-.16-.016-.305-.161-.594-.45L1.834 9.055c-.29-.29-.435-.434-.45-.594a.48.48 0 0 1 .138-.37c.116-.11.305-.124.682-.15"/><mask id="a" width="33" height="11" x="21.219" y="4.828" fill="#000" maskUnits="userSpaceOnUse"><path fill="#fff" d="M21.219 4.828h33v11h-33z"/><path d="M25.025 6.069q1.4 0 2.445.542a3.74 3.74 0 0 1 1.626 1.537q.58.996.58 2.332t-.58 2.319a3.8 3.8 0 0 1-1.626 1.512q-1.045.517-2.445.517h-2.861v-8.76h2.861Zm0 7.587q1.537 0 2.357-.832t.82-2.344q0-1.525-.82-2.382t-2.357-.857h-1.424v6.415zm12.364-5.772v6.944h-1.437v-.82a2.4 2.4 0 0 1-.895.682 2.8 2.8 0 0 1-1.16.239 3.15 3.15 0 0 1-1.474-.34 2.5 2.5 0 0 1-1.02-1.009q-.366-.668-.366-1.613V7.884h1.424v3.869q0 .932.466 1.437.467.49 1.273.491.807 0 1.273-.491.48-.504.48-1.437v-3.87h1.436Zm5.4-.114q.819 0 1.462.34.655.34 1.02 1.009.366.668.366 1.613v4.096h-1.424v-3.882q0-.932-.467-1.424-.465-.504-1.273-.504-.806 0-1.285.504-.467.492-.467 1.424v3.882h-1.436V7.884h1.437v.794q.352-.43.894-.668.554-.24 1.172-.24Zm11.045 3.416q0 .39-.05.706h-5.306q.063.832.617 1.335.555.505 1.362.505 1.16 0 1.638-.97h1.55a3.15 3.15 0 0 1-1.147 1.575q-.819.605-2.041.605-.995 0-1.79-.442a3.3 3.3 0 0 1-1.235-1.26q-.441-.819-.441-1.89 0-1.072.428-1.878a3.1 3.1 0 0 1 1.223-1.26q.794-.442 1.815-.442.982 0 1.752.429.768.428 1.197 1.21.428.768.428 1.777m-1.5-.454q-.012-.795-.567-1.273-.554-.48-1.373-.479-.744 0-1.273.479-.53.466-.63 1.273z"/></mask><path fill="#fff" d="M25.025 6.069q1.4 0 2.445.542a3.74 3.74 0 0 1 1.626 1.537q.58.996.58 2.332t-.58 2.319a3.8 3.8 0 0 1-1.626 1.512q-1.045.517-2.445.517h-2.861v-8.76h2.861Zm0 7.587q1.537 0 2.357-.832t.82-2.344q0-1.525-.82-2.382t-2.357-.857h-1.424v6.415zm12.364-5.772v6.944h-1.437v-.82a2.4 2.4 0 0 1-.895.682 2.8 2.8 0 0 1-1.16.239 3.15 3.15 0 0 1-1.474-.34 2.5 2.5 0 0 1-1.02-1.009q-.366-.668-.366-1.613V7.884h1.424v3.869q0 .932.466 1.437.467.49 1.273.491.807 0 1.273-.491.48-.504.48-1.437v-3.87h1.436Zm5.4-.114q.819 0 1.462.34.655.34 1.02 1.009.366.668.366 1.613v4.096h-1.424v-3.882q0-.932-.467-1.424-.465-.504-1.273-.504-.806 0-1.285.504-.467.492-.467 1.424v3.882h-1.436V7.884h1.437v.794q.352-.43.894-.668.554-.24 1.172-.24Zm11.045 3.416q0 .39-.05.706h-5.306q.063.832.617 1.335.555.505 1.362.505 1.16 0 1.638-.97h1.55a3.15 3.15 0 0 1-1.147 1.575q-.819.605-2.041.605-.995 0-1.79-.442a3.3 3.3 0 0 1-1.235-1.26q-.441-.819-.441-1.89 0-1.072.428-1.878a3.1 3.1 0 0 1 1.223-1.26q.794-.442 1.815-.442.982 0 1.752.429.768.428 1.197 1.21.428.768.428 1.777m-1.5-.454q-.012-.795-.567-1.273-.554-.48-1.373-.479-.744 0-1.273.479-.53.466-.63 1.273z"/><path fill="#fff" d="m27.47 6.61-.12.234.003.001.117-.234Zm1.626 1.538-.229.129.002.003zm0 4.651-.226-.133-.002.002zm-1.626 1.512.116.236h.002zm-5.306.517h-.263v.263h.263zm0-8.76v-.262h-.263v.263zm5.218 6.756-.187-.184zM23.6 7.241v-.263h-.263v.263zm0 6.415h-.263v.263h.263zm1.424-7.325c.899 0 1.67.174 2.324.513l.242-.467c-.741-.383-1.6-.57-2.566-.57zm2.328.514q.988.495 1.514 1.432l.458-.257a4 4 0 0 0-1.738-1.644zm1.516 1.435c.36.618.544 1.348.544 2.2h.525c0-.93-.202-1.754-.615-2.464zm.544 2.2c0 .852-.184 1.577-.543 2.186l.452.266c.414-.702.616-1.523.616-2.452zm-.544 2.188a3.5 3.5 0 0 1-1.516 1.409l.234.47a4.04 4.04 0 0 0 1.736-1.617zm-1.515 1.408c-.655.323-1.429.49-2.329.49v.525q1.45.002 2.561-.544zm-2.329.49h-2.861v.525h2.861zm-2.598.262v-8.76H21.9v8.76zm-.263-8.497h2.861v-.525h-2.861zm2.861 7.588c1.072 0 1.934-.292 2.544-.91l-.374-.37c-.483.49-1.192.754-2.17.754zm2.544-.91c.608-.618.895-1.473.895-2.53h-.525c0 .961-.26 1.669-.744 2.16zm.895-2.53c0-1.063-.287-1.93-.892-2.563l-.38.363c.487.51.747 1.232.747 2.2zm-.892-2.563c-.61-.637-1.473-.938-2.547-.938v.525c.976 0 1.684.27 2.167.776zm-2.547-.938H23.6v.525h1.424zm-1.687.263v6.415h.525V7.241zm.263 6.678h1.424v-.526H23.6zm13.788-6.035h.262V7.62h-.262v.263Zm0 6.944v.263h.262v-.263zm-1.437 0h-.262v.263h.262zm0-.82h.263v-.752l-.469.59zm-.895.682.106.24.003-.002-.109-.239Zm-2.634-.101-.123.232h.002zm-1.02-1.009-.231.126.002.004zm-.366-5.696V7.62h-.263v.263h.263Zm1.424 0h.263V7.62h-.263v.263Zm.466 5.306-.193.178.003.002zm2.546 0-.19-.181.19.18Zm.48-5.306V7.62h-.264v.263h.263Zm1.173 0v6.944h.526V7.884zm.263 6.682h-1.437v.525h1.437zm-1.174.262v-.82h-.526v.82zm-.469-.982q-.295.375-.797.604l.217.479q.606-.275.992-.757zm-.795.603a2.6 2.6 0 0 1-1.053.217v.525a3.1 3.1 0 0 0 1.265-.261l-.212-.48Zm-1.053.217a2.9 2.9 0 0 1-1.354-.31l-.242.466q.718.371 1.596.37zm-1.352-.31a2.25 2.25 0 0 1-.915-.905l-.457.259c.275.486.65.86 1.126 1.11l.246-.463Zm-.913-.902c-.218-.398-.334-.89-.334-1.487h-.525c0 .664.129 1.247.398 1.74zm-.334-1.487V7.884h-.525v4.083zm-.262-3.82h1.424V7.62h-1.424v.525Zm1.161-.263v3.869h.526v-3.87h-.526Zm0 3.869c0 .664.167 1.215.536 1.615l.386-.357c-.252-.272-.396-.678-.396-1.258zm.539 1.617c.37.39.868.574 1.463.574v-.525c-.48 0-.83-.145-1.082-.41zm1.463.574c.595 0 1.094-.184 1.464-.574l-.381-.361c-.252.265-.602.41-1.083.41zm1.463-.574c.38-.4.552-.952.552-1.617h-.526c0 .578-.147.983-.406 1.256zm.552-1.617v-3.87h-.526v3.87zm-.263-3.607h1.437v-.525h-1.437zm8.299-.036-.123.232.002.001zm1.02 1.009-.23.126zm.366 5.71v.262h.262v-.263zm-1.424 0h-.263v.262h.263zm-.467-5.307-.192.178.002.003zm-2.558 0-.19-.18zm-.467 5.306v.263h.263v-.263zm-1.436 0h-.263v.263h.263zm0-6.944V7.62h-.263v.263h.263Zm1.437 0h.262V7.62h-.263v.263Zm0 .794h-.263v.731l.465-.564zm.894-.668-.104-.241h-.002zm1.172.023q.763.001 1.34.31l.245-.465a3.34 3.34 0 0 0-1.584-.37v.525Zm1.342.31c.389.203.691.5.911.902l.46-.252a2.67 2.67 0 0 0-1.13-1.116zm.911.902c.218.398.333.89.333 1.487h.525c0-.664-.128-1.247-.397-1.74zm.333 1.487v4.096h.525v-4.096zm.263 3.834h-1.424v.525h1.424zm-1.162.262v-3.882h-.525v3.882zm0-3.882c0-.663-.166-1.212-.538-1.605l-.381.362c.25.263.394.663.394 1.243zm-.536-1.602c-.37-.4-.869-.589-1.466-.589v.525c.479 0 .828.147 1.08.42zm-1.466-.589c-.597 0-1.099.19-1.476.586l.381.362c.262-.276.617-.423 1.095-.423zm-1.476.586c-.372.393-.538.942-.538 1.605h.525c0-.58.145-.98.394-1.243l-.38-.362Zm-.538 1.605v3.882h.525v-3.882zm.262 3.62h-1.436v.525h1.437v-.525Zm-1.174.262V7.884h-.525v6.944zm-.262-6.682h1.437v-.525h-1.437zm1.174-.262v.794h.525v-.794zm.465.96q.31-.377.798-.594l-.212-.48a2.65 2.65 0 0 0-.991.74zm.796-.593a2.7 2.7 0 0 1 1.069-.218v-.525q-.67 0-1.277.26zm12.064 3.64v.263h.224l.035-.221zm-5.306 0v-.262h-.283l.021.282zm.617 1.336-.176.195.177-.195Zm3-.466V12.5h-.163l-.072.146.235.116Zm1.55 0 .25.082.113-.344h-.363zm-1.147 1.576.156.21zm-3.831.163-.132.227.004.003zm-1.235-1.26-.231.125.002.004zm-.013-3.768-.231-.125v.001zm1.223-1.26-.128-.23h-.001zm3.566-.013.128-.23-.127.23Zm1.198 1.21-.23.126v.001zm-1.071 1.323v.263h.266l-.004-.267zm-.568-1.273.172-.199zm-2.646 0 .173.197.003-.002zm-.63 1.273-.261-.033-.037.296h.297zm5.08.454q0 .374-.046.664l.518.083q.055-.34.054-.747h-.525Zm.213.443h-5.306v.525h5.306zm-5.568.282c.047.614.278 1.124.703 1.51l.353-.388c-.314-.285-.495-.665-.532-1.161l-.524.04Zm.703 1.51c.422.384.94.573 1.538.573v-.525c-.478 0-.867-.147-1.185-.436l-.353.389Zm1.538.573c.423 0 .801-.089 1.123-.28.323-.19.572-.474.75-.837l-.47-.232a1.4 1.4 0 0 1-.548.618c-.224.133-.506.206-.855.206zm1.638-.97h1.55v-.525h-1.55zm1.3-.345a2.9 2.9 0 0 1-1.053 1.447l.313.421a3.4 3.4 0 0 0 1.24-1.704zm-1.053 1.446c-.492.364-1.115.554-1.885.554v.525c.86 0 1.598-.213 2.197-.656zm-1.885.554a3.37 3.37 0 0 1-1.663-.408l-.255.459q.86.476 1.918.474zm-1.658-.406a3.04 3.04 0 0 1-1.138-1.162l-.458.258a3.56 3.56 0 0 0 1.332 1.358zm-1.136-1.157c-.27-.503-.41-1.09-.41-1.766h-.525c0 .75.155 1.425.473 2.015zm-.41-1.766c0-.68.136-1.261.398-1.755l-.464-.247c-.309.582-.459 1.252-.459 2.002zm.397-1.754a2.84 2.84 0 0 1 1.12-1.156l-.257-.457a3.36 3.36 0 0 0-1.325 1.364l.462.25Zm1.12-1.155q.726-.406 1.687-.408v-.525c-.72 0-1.37.155-1.943.474zm1.687-.408q.922.002 1.624.395l.255-.459q-.836-.463-1.88-.461zm1.624.395q.701.39 1.095 1.107l.46-.253a3.3 3.3 0 0 0-1.3-1.313zm1.095 1.108c.261.469.396 1.016.396 1.65h.525c0-.71-.151-1.348-.462-1.905zm-.579 1.192c-.01-.597-.227-1.095-.658-1.468l-.343.398c.308.266.469.617.476 1.078zM51.94 9.26c-.423-.365-.944-.543-1.545-.543v.526c.49 0 .886.142 1.202.415zm-1.545-.543c-.558 0-1.046.182-1.45.547l.353.39a1.57 1.57 0 0 1 1.097-.411zm-1.447.545c-.408.36-.643.846-.717 1.437l.521.066c.06-.485.246-.847.543-1.109zm-.457 1.732h3.845v-.525H48.49z" mask="url(#a)"/></svg>