<svg xmlns="http://www.w3.org/2000/svg" width="57" height="18" fill="none"><path stroke="#fff" stroke-linecap="round" stroke-linejoin="round" stroke-width="1.05" d="M15.284 8.09c0 2.936-2.398 5.317-5.356 5.317-2.959 0-5.357-2.38-5.357-5.318m10.713 0c0-2.936-2.398-5.317-5.356-5.317-2.959 0-5.357 2.38-5.357 5.317m10.713 0c0 3.916-3.198 7.09-7.142 7.09S1 12.005 1 8.089m3.571 0C4.571 4.174 7.769 1 11.713 1s7.142 3.174 7.142 7.09"/><mask id="a" width="34" height="16" x="21.742" y="2.461" fill="#000" maskUnits="userSpaceOnUse"><path fill="#fff" d="M21.742 2.461h34v16h-34z"/><path d="M27.403 13.562a5.3 5.3 0 0 1-2.585-.65 5 5 0 0 1-1.863-1.834q-.678-1.184-.678-2.657c0-1.473.226-1.863.678-2.643a4.9 4.9 0 0 1 1.863-1.82 5.2 5.2 0 0 1 2.585-.664q1.416 0 2.585.664 1.184.65 1.863 1.82.68 1.17.679 2.643 0 1.473-.679 2.657a4.87 4.87 0 0 1-1.863 1.834q-1.17.65-2.585.65m0-1.43q.997 0 1.777-.447.78-.463 1.213-1.3.447-.852.447-1.964t-.447-1.95a3.07 3.07 0 0 0-1.213-1.285q-.78-.448-1.777-.448t-1.776.448a3.16 3.16 0 0 0-1.228 1.285q-.432.838-.433 1.95 0 1.112.433 1.964a3.27 3.27 0 0 0 1.228 1.3q.78.447 1.776.447m8.393-5.459q.42-.548 1.141-.924a3.5 3.5 0 0 1 1.632-.375q1.04 0 1.892.52.867.505 1.358 1.43.49.923.49 2.122 0 1.2-.49 2.152a3.7 3.7 0 0 1-1.358 1.473 3.56 3.56 0 0 1-1.892.52q-.91 0-1.617-.361a3.7 3.7 0 0 1-1.156-.924v4.939H34.15V5.504h1.646zm4.838 2.773q0-.823-.346-1.415a2.2 2.2 0 0 0-.896-.91 2.3 2.3 0 0 0-1.184-.318q-.62 0-1.184.318-.549.318-.895.924-.333.607-.333 1.43t.333 1.444q.346.607.895.925.564.317 1.184.317.636 0 1.184-.317.563-.333.896-.954.345-.62.346-1.444m2.755 0q0-1.199.49-2.123a3.67 3.67 0 0 1 3.265-1.95q.939 0 1.632.376.707.36 1.126.91V5.504h1.66v7.957h-1.66v-1.184q-.42.563-1.14.938-.723.375-1.647.376-1.026 0-1.878-.52a3.86 3.86 0 0 1-1.357-1.473q-.492-.954-.491-2.152m6.513.03q0-.825-.347-1.43a2.33 2.33 0 0 0-.88-.925 2.3 2.3 0 0 0-1.185-.318q-.635 0-1.184.318a2.33 2.33 0 0 0-.895.91q-.333.592-.333 1.415c0 .823.111 1.03.333 1.444q.346.621.895.954.564.317 1.184.317.636 0 1.184-.317.55-.318.881-.925.347-.62.347-1.444Zm5.47-6.702v10.687h-1.647V2.774z"/></mask><path fill="#fff" d="M27.403 13.562a5.3 5.3 0 0 1-2.585-.65 5 5 0 0 1-1.863-1.834q-.678-1.184-.678-2.657c0-1.473.226-1.863.678-2.643a4.9 4.9 0 0 1 1.863-1.82 5.2 5.2 0 0 1 2.585-.664q1.416 0 2.585.664 1.184.65 1.863 1.82.68 1.17.679 2.643 0 1.473-.679 2.657a4.87 4.87 0 0 1-1.863 1.834q-1.17.65-2.585.65m0-1.43q.997 0 1.777-.447.78-.463 1.213-1.3.447-.852.447-1.964t-.447-1.95a3.07 3.07 0 0 0-1.213-1.285q-.78-.448-1.777-.448t-1.776.448a3.16 3.16 0 0 0-1.228 1.285q-.432.838-.433 1.95 0 1.112.433 1.964a3.27 3.27 0 0 0 1.228 1.3q.78.447 1.776.447m8.393-5.459q.42-.548 1.141-.924a3.5 3.5 0 0 1 1.632-.375q1.04 0 1.892.52.867.505 1.358 1.43.49.923.49 2.122 0 1.2-.49 2.152a3.7 3.7 0 0 1-1.358 1.473 3.56 3.56 0 0 1-1.892.52q-.91 0-1.617-.361a3.7 3.7 0 0 1-1.156-.924v4.939H34.15V5.504h1.646zm4.838 2.773q0-.823-.346-1.415a2.2 2.2 0 0 0-.896-.91 2.3 2.3 0 0 0-1.184-.318q-.62 0-1.184.318-.549.318-.895.924-.333.607-.333 1.43t.333 1.444q.346.607.895.925.564.317 1.184.317.636 0 1.184-.317.563-.333.896-.954.345-.62.346-1.444m2.755 0q0-1.199.49-2.123a3.67 3.67 0 0 1 3.265-1.95q.939 0 1.632.376.707.36 1.126.91V5.504h1.66v7.957h-1.66v-1.184q-.42.563-1.14.938-.723.375-1.647.376-1.026 0-1.878-.52a3.86 3.86 0 0 1-1.357-1.473q-.492-.954-.491-2.152m6.513.03q0-.825-.347-1.43a2.33 2.33 0 0 0-.88-.925 2.3 2.3 0 0 0-1.185-.318q-.635 0-1.184.318a2.33 2.33 0 0 0-.895.91q-.333.592-.333 1.415c0 .823.111 1.03.333 1.444q.346.621.895.954.564.317 1.184.317.636 0 1.184-.317.55-.318.881-.925.347-.62.347-1.444Zm5.47-6.702v10.687h-1.647V2.774z"/><path fill="#fff" d="m24.818 12.912-.13.228.004.002zm-1.863-1.834-.228.13.002.004zm0-5.3-.226-.134v.002zm1.863-1.82.128.23zm5.17 0-.13.229.004.002.126-.23Zm1.863 1.82-.227.132zm0 5.3.227.132.001-.001-.228-.13Zm-1.863 1.834.128.23zm-.808-1.227.13.227.004-.002zm1.213-1.3-.233-.122v.001l.233.12Zm0-3.914-.234.12.002.004zM29.18 5.186l-.131.228.13-.228Zm-3.553 0 .13.228zM24.399 6.47l-.231-.124-.002.004zm0 3.914-.234.119.003.005zm1.228 1.3-.134.226.003.001zm1.776 1.614a5 5 0 0 1-2.458-.617l-.253.46q1.246.684 2.711.683V13.3Zm-2.455-.615a4.74 4.74 0 0 1-1.767-1.74l-.452.268a5.27 5.27 0 0 0 1.96 1.928zm-1.765-1.736q-.643-1.119-.644-2.527h-.525q-.001 1.537.713 2.788zM22.54 8.42q.001-1.408.643-2.511l-.454-.264q-.716 1.237-.714 2.775zm.642-2.51a4.64 4.64 0 0 1 1.765-1.723l-.255-.46a5.16 5.16 0 0 0-1.962 1.916l.452.268Zm1.766-1.724a4.93 4.93 0 0 1 2.456-.63V3.03q-1.467 0-2.713.698zm2.456-.63q1.349 0 2.456.63l.259-.457a5.4 5.4 0 0 0-2.715-.699zm2.459.632q1.121.614 1.762 1.72l.454-.263a5.03 5.03 0 0 0-1.963-1.918l-.253.46Zm1.762 1.72q.642 1.104.643 2.512h.526q.001-1.538-.715-2.775zm.643 2.512q-.001 1.408-.644 2.527l.456.26q.715-1.25.714-2.787zm-.643 2.525a4.6 4.6 0 0 1-1.764 1.737l.257.458a5.13 5.13 0 0 0 1.961-1.931zm-1.763 1.737a4.97 4.97 0 0 1-2.458.617v.525q1.48 0 2.713-.683l-.255-.46Zm-2.458-.288c.705 0 1.344-.159 1.907-.483l-.261-.455c-.476.273-1.022.413-1.646.413zm1.91-.484a3.43 3.43 0 0 0 1.313-1.405l-.466-.242a2.9 2.9 0 0 1-1.114 1.195l.268.452Zm1.312-1.404q.48-.919.478-2.086h-.525c0 .705-.142 1.317-.418 1.842zm.478-2.086c0-.777-.157-1.471-.479-2.074l-.463.248c.275.514.417 1.12.417 1.826zm-.477-2.07a3.33 3.33 0 0 0-1.316-1.393l-.261.456q.711.406 1.11 1.178zM29.31 4.958c-.563-.324-1.202-.482-1.907-.482V5q.934.002 1.646.413l.261-.456Zm-1.907-.482c-.705 0-1.343.158-1.907.482l.262.456q.712-.412 1.645-.414zm-1.907.482a3.43 3.43 0 0 0-1.328 1.39l.463.247a2.9 2.9 0 0 1 1.127-1.181zm-1.33 1.393c-.311.601-.462 1.294-.462 2.07h.525c0-.707.137-1.314.404-1.83zm-.462 2.07q-.002 1.165.461 2.083l.469-.238c-.268-.526-.405-1.138-.405-1.845zm.464 2.088q.48.899 1.325 1.402l.268-.452a3 3 0 0 1-1.13-1.198zm1.328 1.403q.848.484 1.907.483v-.525q-.934-.002-1.645-.413zm10.3-5.239h-.262v.777l.471-.617zm1.141-.924-.12-.233zm3.524.145-.137.224.005.002zm1.358 1.43-.232.122.232-.123Zm0 4.274.232.122.001-.002zm-1.358 1.473.137.224zm-3.51.159-.122.232.003.002zm-1.155-.924L36 12.14l-.466-.572v.738zm0 4.939v.262h.263v-.262zm-1.646 0h-.262v.262h.262zm0-11.741V5.24h-.262v.263zm1.646 0h.263V5.24h-.263zm4.492 2.527-.23.126.003.007zm-.896-.91-.131.227.007.004.124-.23Zm-2.368 0-.129-.229-.003.002zm-.895.924-.228-.13-.003.004.23.126Zm0 2.874-.232.124.004.007.228-.13Zm.895.925-.132.227.003.001zm2.368 0 .132.227.002-.001zm.896-.954-.23-.128-.002.005zm-4.283-4.057c.252-.33.6-.615 1.053-.85l-.242-.467q-.767.397-1.228.998zm1.053-.85q.659-.346 1.511-.347v-.525q-.967-.002-1.753.405zm1.511-.347q.969 0 1.755.482l.274-.449a3.8 3.8 0 0 0-2.029-.558zm1.76.484c.533.312.952.751 1.258 1.326l.463-.246a3.8 3.8 0 0 0-1.457-1.533zm1.258 1.326c.304.574.46 1.238.46 2h.525c0-.836-.171-1.587-.522-2.246zm.46 2q-.002 1.142-.462 2.032l.467.24q.522-1.017.52-2.272zm-.461 2.03a3.45 3.45 0 0 1-1.263 1.371l.276.447a4 4 0 0 0 1.452-1.574zm-1.262 1.37a3.3 3.3 0 0 1-1.755.482v.526q1.111 0 2.029-.559l-.274-.448Zm-1.755.482q-.854-.002-1.498-.332l-.239.468q.773.392 1.737.39zm-1.494-.33A3.45 3.45 0 0 1 36 12.14l-.407.332q.486.593 1.236.99zm-1.541-.692v4.939h.525v-4.94zm.262 4.676H34.15v.525h1.646zm-1.383.263V5.504h-.525v11.74h.525ZM34.15 5.766h1.646v-.525H34.15zm1.384-.262v1.17h.525v-1.17zm5.363 3.942c0-.586-.124-1.105-.383-1.548l-.453.266c.203.347.31.77.31 1.282zm-.379-1.541a2.47 2.47 0 0 0-1.001-1.015l-.25.462c.328.176.591.441.79.805zm-.994-1.011a2.6 2.6 0 0 0-1.316-.353v.525q.566 0 1.053.282zm-1.316-.353q-.692 0-1.313.351l.258.458q.506-.284 1.055-.284V6.54Zm-1.316.353q-.615.357-.991 1.021l.456.26c.21-.368.477-.64.799-.827zm-.994 1.025c-.246.45-.364.972-.364 1.556h.525c0-.513.103-.945.3-1.304zm-.364 1.556c0 .585.118 1.11.363 1.568l.463-.248c-.198-.37-.301-.807-.301-1.32zm.367 1.575c.251.44.581.783.991 1.02l.264-.454a2.17 2.17 0 0 1-.8-.827l-.455.26Zm.994 1.022q.62.35 1.313.352v-.525q-.55 0-1.055-.284zm1.313.352q.706 0 1.316-.353l-.263-.455a2.06 2.06 0 0 1-1.053.283zm1.318-.354c.42-.248.751-.603.993-1.056l-.463-.247q-.3.56-.797.85zm.991-1.052q.382-.69.38-1.572h-.525c0 .511-.108.947-.313 1.316zm3.363-3.695-.23-.126-.002.003zm1.357-1.43.134.226h.002zm3.539-.144-.126.231.006.003zm1.126.91-.209.16.472.617v-.777zm0-1.155V5.24h-.263v.263zm1.66 0h.263V5.24h-.262zm0 7.957v.262h.263v-.262zm-1.66 0h-.263v.262h.263zm0-1.184h.263v-.793l-.474.636zm-1.14.938-.122-.232.121.232Zm-3.525-.144-.14.223.004.001zm-1.357-1.473-.234.12.003.005.23-.125Zm5.675-3.553-.23.126.002.005zm-.88-.924-.132.227zm-2.369 0 .127.23.005-.003zm-.895.91-.228-.13-.001.001zm0 2.86-.232.123.002.004.23-.128Zm.895.953-.136.224.007.004zm2.369 0 .131.227zm.88-.925-.229-.128v.002zm-5.904-1.473c0-.762.156-1.426.46-2l-.463-.246q-.524.991-.522 2.246zm.46-1.997a3.4 3.4 0 0 1 1.26-1.33l-.268-.451a3.93 3.93 0 0 0-1.453 1.53l.46.251Zm1.262-1.33a3.37 3.37 0 0 1 1.77-.483v-.525a3.9 3.9 0 0 0-2.04.557l.27.45Zm1.77-.483c.591 0 1.09.118 1.508.344l.25-.462c-.508-.274-1.096-.407-1.757-.407v.525Zm1.513.347q.661.34 1.037.835l.418-.318a3.5 3.5 0 0 0-1.216-.985zm1.509.676V5.504h-.526v1.155zm-.263-.893h1.66v-.525h-1.66zm1.398-.262v7.957h.525V5.504zm.263 7.694h-1.661v.525h1.66v-.525Zm-1.398.263v-1.184h-.526v1.184zm-.474-1.341q-.376.51-1.051.863l.242.465c.511-.265.924-.603 1.23-1.015zm-1.051.863c-.44.228-.945.345-1.525.345v.526c.652 0 1.244-.133 1.767-.406l-.242-.466Zm-1.525.345q-.954 0-1.74-.481l-.274.448a3.8 3.8 0 0 0 2.014.559zm-1.738-.48a3.6 3.6 0 0 1-1.266-1.375l-.462.25q.535.996 1.449 1.57zm-1.264-1.37q-.46-.89-.462-2.032h-.525q-.001 1.255.52 2.272zm6.052-2.003c0-.586-.124-1.11-.382-1.56l-.456.26c.205.359.313.789.313 1.3zm-.38-1.556a2.6 2.6 0 0 0-.979-1.025l-.263.454c.32.186.582.457.782.823zm-.979-1.025a2.6 2.6 0 0 0-1.316-.353v.525q.566 0 1.053.282zM47.49 6.54q-.706 0-1.316.353l.264.454a2.06 2.06 0 0 1 1.052-.282zm-1.31.35a2.6 2.6 0 0 0-.997 1.01l.456.26c.21-.367.475-.634.794-.81zm-.998 1.011c-.248.442-.366.96-.366 1.544h.525c0-.513.103-.939.299-1.287zm-.366 1.544c0 .585.118 1.11.363 1.568l.463-.247q-.299-.553-.3-1.32zm.365 1.572c.251.45.58.803.99 1.05l.271-.45a2.26 2.26 0 0 1-.802-.856zm.996 1.054q.62.35 1.313.352v-.525q-.55 0-1.055-.284zm1.313.352q.706 0 1.316-.353l-.263-.455a2.06 2.06 0 0 1-1.053.283zm1.316-.353a2.6 2.6 0 0 0 .98-1.026l-.46-.252a2.07 2.07 0 0 1-.783.823zm.979-1.024c.256-.459.38-.986.38-1.572h-.526q-.002.764-.313 1.316zm5.587-8.273h.262v-.262h-.263zm0 10.687v.262h.262v-.262zm-1.647 0h-.262v.262h.262zm0-10.687v-.262h-.262v.262zm1.384 0V13.46h.525V2.774h-.525Zm.262 10.424h-1.646v.525h1.646zm-1.383.263V2.774h-.525v10.687zm-.263-10.424h1.646v-.525h-1.646z" mask="url(#a)"/></svg>