<svg xmlns="http://www.w3.org/2000/svg" width="75" height="17" fill="none"><g clip-path="url(#a)"><path stroke="#fff" stroke-linecap="round" stroke-linejoin="round" stroke-width="1.575" d="M9.799.703v7.002m0 7.002V7.705m4.951-4.951-9.902 9.902m4.95-4.95h-7m11.953 4.95L4.848 2.754"/></g><path fill="#fff" d="M23.939 10.676h-4.203l-.722 2.05h-1.718l3.596-10.05h1.906l3.596 10.05H24.66l-.722-2.05Zm-.462-1.343-1.632-4.665-1.646 4.665zm7.369 3.524q-.94 0-1.69-.333a3.05 3.05 0 0 1-1.17-.924 2.34 2.34 0 0 1-.462-1.314h1.704q.044.505.477.852.447.332 1.112.332.693 0 1.069-.26.39-.274.39-.693 0-.447-.434-.664-.419-.217-1.343-.477a13 13 0 0 1-1.458-.476 2.6 2.6 0 0 1-.983-.708q-.404-.477-.404-1.257 0-.634.376-1.155.375-.534 1.068-.837.708-.304 1.618-.304 1.358 0 2.18.693.838.68.896 1.863h-1.647a1.17 1.17 0 0 0-.433-.852q-.39-.317-1.054-.317-.65 0-.997.245a.76.76 0 0 0-.346.65q0 .318.231.534t.563.347q.333.115.982.303.867.231 1.416.477.563.231.967.693.405.462.419 1.228 0 .678-.376 1.213-.375.534-1.068.837-.68.303-1.603.303Zm6.747-6.745v4.405q0 .448.202.65.216.188.722.188h1.01v1.372h-1.299q-1.112 0-1.704-.52t-.592-1.69V6.112h-.939V4.77h.939V2.791h1.66v1.978h1.936v1.343zm10.745 2.44q0 .45-.058.81H42.2q.073.952.708 1.53.636.578 1.56.578 1.328 0 1.877-1.112h1.776a3.6 3.6 0 0 1-1.314 1.805q-.938.694-2.34.694-1.14 0-2.05-.506a3.8 3.8 0 0 1-1.415-1.444q-.506-.939-.506-2.166 0-1.228.491-2.152a3.55 3.55 0 0 1 1.401-1.444q.91-.506 2.08-.506 1.126 0 2.007.491.881.492 1.372 1.387.49.88.491 2.036Zm-1.718-.519q-.015-.91-.65-1.459-.636-.548-1.575-.548a2.1 2.1 0 0 0-1.458.548q-.606.535-.722 1.459zm4.985-2.108q.36-.607.953-.94.606-.346 1.43-.346v1.704h-.42q-.966 0-1.472.491-.492.492-.491 1.705v4.188h-1.647V4.769h1.647zm4.733-2.21a1.02 1.02 0 0 1-.75-.303 1.02 1.02 0 0 1-.304-.751q0-.448.303-.751a1.02 1.02 0 0 1 .751-.303q.434 0 .737.303t.303.75q0 .45-.303.752a1 1 0 0 1-.737.303m.81 1.054v7.958H55.5V4.769h1.646Zm5.049 8.088q-.94 0-1.69-.333a3.05 3.05 0 0 1-1.17-.924 2.34 2.34 0 0 1-.462-1.314h1.705q.042.505.476.852.449.332 1.112.332.693 0 1.069-.26.39-.274.39-.693 0-.447-.434-.664-.418-.217-1.343-.477a13 13 0 0 1-1.458-.476 2.6 2.6 0 0 1-.982-.708q-.405-.477-.405-1.257 0-.634.376-1.155.375-.534 1.069-.837.706-.304 1.617-.304 1.358 0 2.18.693.839.68.896 1.863h-1.646a1.17 1.17 0 0 0-.434-.852q-.389-.317-1.054-.317-.65 0-.996.245a.76.76 0 0 0-.347.65q0 .318.231.534t.563.347q.334.115.982.303.867.231 1.416.477.563.231.967.693.405.462.42 1.228 0 .678-.376 1.213-.376.534-1.069.837-.68.303-1.603.303Zm7.974-4.102 3.668 3.972h-2.224L68.67 9.304v3.423h-1.646V2.04h1.646v6.21l2.889-3.48h2.281z"/><defs><clipPath id="a"><path fill="#fff" d="M0 0h16.805v16.805H0z"/></clipPath></defs></svg>