<svg xmlns="http://www.w3.org/2000/svg" width="50" height="17" fill="none"><path fill="#fff" stroke="#fff" stroke-width=".03" d="M4.601 16.266h44.752v-2.134H4.601a2.18 2.18 0 0 1 0-4.357h6.477V7.64H4.601a2.18 2.18 0 0 1-2.179-2.18c0-1.202.978-2.18 2.18-2.18h6.476V1.149H4.601A4.316 4.316 0 0 0 .29 5.461c0 1.295.585 2.442 1.49 3.234l.013.011-.013.012C.874 9.51.29 10.659.29 11.952a4.32 4.32 0 0 0 4.31 4.314Z"/><mask id="a" width="37" height="13" x="12.602" y=".102" fill="#000" maskUnits="userSpaceOnUse"><path fill="#fff" d="M12.602.102h37v13h-37z"/><path d="M17.415 12.277q-1.225 0-2.14-.561a3.8 3.8 0 0 1-1.419-1.573q-.505-1.01-.505-2.361 0-1.357.505-2.373a3.8 3.8 0 0 1 1.42-1.578q.912-.562 2.14-.562 1.225 0 2.139.562t1.42 1.578q.504 1.016.504 2.373 0 1.35-.505 2.361a3.8 3.8 0 0 1-1.419 1.573q-.915.561-2.14.562Zm.006-1.424q.795 0 1.317-.42a2.46 2.46 0 0 0 .772-1.118 4.5 4.5 0 0 0 .255-1.539 4.4 4.4 0 0 0-.255-1.532 2.5 2.5 0 0 0-.772-1.13q-.522-.426-1.317-.426-.801 0-1.328.426-.523.425-.778 1.13-.25.698-.25 1.532 0 .84.25 1.539.255.698.778 1.118.527.42 1.328.42m9.625 1.425q-1.225 0-2.14-.562a3.8 3.8 0 0 1-1.419-1.573q-.504-1.01-.505-2.361 0-1.357.505-2.373a3.8 3.8 0 0 1 1.42-1.578q.913-.561 2.14-.562 1.225 0 2.14.562.912.562 1.418 1.578t.505 2.373q0 1.35-.505 2.361a3.8 3.8 0 0 1-1.419 1.573q-.913.562-2.14.562m.006-1.425q.795 0 1.317-.42t.772-1.118a4.5 4.5 0 0 0 .255-1.539 4.4 4.4 0 0 0-.255-1.532 2.5 2.5 0 0 0-.772-1.13q-.522-.426-1.317-.426-.8 0-1.328.426-.523.425-.778 1.13a4.5 4.5 0 0 0-.25 1.532q0 .84.25 1.539.256.698.778 1.118.527.42 1.328.42m7.514-1.709-.011-2.072h.295l3.474-3.69h2.032l-3.962 4.201h-.267zm-1.561 2.958V.477h1.697v11.625zm5.506 0-3.122-4.144 1.17-1.186 4.035 5.33zm9.925-6.59-1.538.272a1.8 1.8 0 0 0-.307-.562 1.5 1.5 0 0 0-.556-.437q-.352-.17-.88-.17-.72 0-1.203.323-.483.318-.483.823 0 .438.324.704.323.267 1.044.437l1.385.318q1.203.278 1.794.857.59.579.59 1.504 0 .784-.454 1.397-.448.607-1.254.953-.801.347-1.857.347-1.463 0-2.39-.625-.924-.63-1.135-1.788l1.641-.25q.153.642.63.971.477.323 1.243.323.834 0 1.334-.346.5-.351.5-.857a.89.89 0 0 0-.307-.687q-.3-.278-.925-.42l-1.476-.323q-1.22-.278-1.805-.886-.579-.607-.579-1.538a2.2 2.2 0 0 1 .431-1.351q.432-.579 1.192-.903.761-.329 1.743-.329 1.413 0 2.225.613.812.607 1.073 1.63"/></mask><path fill="#fff" d="M17.415 12.277q-1.225 0-2.14-.561a3.8 3.8 0 0 1-1.419-1.573q-.505-1.01-.505-2.361 0-1.357.505-2.373a3.8 3.8 0 0 1 1.42-1.578q.912-.562 2.14-.562 1.225 0 2.139.562t1.42 1.578q.504 1.016.504 2.373 0 1.35-.505 2.361a3.8 3.8 0 0 1-1.419 1.573q-.915.561-2.14.562Zm.006-1.424q.795 0 1.317-.42a2.46 2.46 0 0 0 .772-1.118 4.5 4.5 0 0 0 .255-1.539 4.4 4.4 0 0 0-.255-1.532 2.5 2.5 0 0 0-.772-1.13q-.522-.426-1.317-.426-.801 0-1.328.426-.523.425-.778 1.13-.25.698-.25 1.532 0 .84.25 1.539.255.698.778 1.118.527.42 1.328.42m9.625 1.425q-1.225 0-2.14-.562a3.8 3.8 0 0 1-1.419-1.573q-.504-1.01-.505-2.361 0-1.357.505-2.373a3.8 3.8 0 0 1 1.42-1.578q.913-.561 2.14-.562 1.225 0 2.14.562.912.562 1.418 1.578t.505 2.373q0 1.35-.505 2.361a3.8 3.8 0 0 1-1.419 1.573q-.913.562-2.14.562m.006-1.425q.795 0 1.317-.42t.772-1.118a4.5 4.5 0 0 0 .255-1.539 4.4 4.4 0 0 0-.255-1.532 2.5 2.5 0 0 0-.772-1.13q-.522-.426-1.317-.426-.8 0-1.328.426-.523.425-.778 1.13a4.5 4.5 0 0 0-.25 1.532q0 .84.25 1.539.256.698.778 1.118.527.42 1.328.42m7.514-1.709-.011-2.072h.295l3.474-3.69h2.032l-3.962 4.201h-.267zm-1.561 2.958V.477h1.697v11.625zm5.506 0-3.122-4.144 1.17-1.186 4.035 5.33zm9.925-6.59-1.538.272a1.8 1.8 0 0 0-.307-.562 1.5 1.5 0 0 0-.556-.437q-.352-.17-.88-.17-.72 0-1.203.323-.483.318-.483.823 0 .438.324.704.323.267 1.044.437l1.385.318q1.203.278 1.794.857.59.579.59 1.504 0 .784-.454 1.397-.448.607-1.254.953-.801.347-1.857.347-1.463 0-2.39-.625-.924-.63-1.135-1.788l1.641-.25q.153.642.63.971.477.323 1.243.323.834 0 1.334-.346.5-.351.5-.857a.89.89 0 0 0-.307-.687q-.3-.278-.925-.42l-1.476-.323q-1.22-.278-1.805-.886-.579-.607-.579-1.538a2.2 2.2 0 0 1 .431-1.351q.432-.579 1.192-.903.761-.329 1.743-.329 1.413 0 2.225.613.812.607 1.073 1.63"/><path fill="#fff" d="m13.856 10.143.204-.102zm1.42-6.312.119.195zm4.279 0-.12.195zm1.42 6.312-.205-.102zm-1.42 1.573.12.194zm-.817-1.283-.143-.178zm.772-1.118-.215-.079v.002zm0-3.071-.216.076.001.002zm-.772-1.13-.145.177zm-2.645 0-.144-.178v.001zm-.778 1.13-.215-.078zm0 3.07-.215.077v.002l.215-.078Zm.778 1.119-.144.178h.001zm1.322 1.616q-1.17-.002-2.02-.528l-.24.39c.65.399 1.407.595 2.26.595zm-2.02-.528a3.56 3.56 0 0 1-1.335-1.48l-.408.204q.532 1.067 1.504 1.665zm-1.335-1.48q-.479-.952-.48-2.26h-.457c0 .93.173 1.753.529 2.464zm-.48-2.26q.002-1.311.48-2.27l-.408-.203c-.356.714-.53 1.541-.53 2.474h.457Zm.48-2.27a3.55 3.55 0 0 1 1.335-1.485l-.24-.39a4 4 0 0 0-1.503 1.672zm1.335-1.485q.85-.527 2.02-.528V3.04c-.853 0-1.61.196-2.26.596zm2.02-.528q1.17.001 2.02.528l.24-.39c-.65-.4-1.407-.595-2.26-.595zm2.02.528q.857.523 1.335 1.485l.409-.203a4 4 0 0 0-1.504-1.671zM20.77 5.51q.479.959.48 2.27h.458c0-.932-.174-1.759-.53-2.473zm.48 2.27q-.002 1.308-.48 2.26l.408.204c.356-.71.53-1.534.53-2.463h-.457Zm-.48 2.26a3.56 3.56 0 0 1-1.335 1.48l.24.39a4 4 0 0 0 1.503-1.666zm-1.335 1.48q-.85.526-2.02.528v.457c.854 0 1.61-.196 2.26-.596zm-2.014-.44c.572 0 1.064-.152 1.46-.47l-.287-.356c-.3.241-.686.37-1.173.37zm1.46-.47a2.7 2.7 0 0 0 .844-1.22l-.43-.153c-.154.43-.389.766-.7 1.017zm.843-1.218a4.7 4.7 0 0 0 .27-1.617h-.457q-.001.805-.242 1.46zm.27-1.617q0-.87-.27-1.61l-.429.156q.241.656.242 1.454zm-.27-1.609a2.7 2.7 0 0 0-.842-1.23l-.289.354c.313.255.547.595.701 1.029zm-.842-1.23c-.396-.323-.889-.477-1.461-.477v.457c.487 0 .872.13 1.172.374zM17.42 4.46c-.576 0-1.072.154-1.472.476l.287.356c.304-.246.694-.375 1.185-.375zm-1.473.477a2.76 2.76 0 0 0-.848 1.229l.43.156q.236-.65.707-1.03zm-.848 1.23a4.8 4.8 0 0 0-.263 1.61h.456q0-.8.237-1.456zm-.263 1.61q-.001.874.263 1.614l.43-.153a4.3 4.3 0 0 1-.237-1.462h-.456Zm.263 1.616c.183.5.465.909.85 1.218l.286-.356a2.27 2.27 0 0 1-.707-1.019zm.85 1.218c.4.318.896.47 1.47.47v-.457c-.491 0-.881-.128-1.185-.37zm7.537-.468.205-.102zm1.42-6.312.119.195-.12-.195Zm4.28 0-.12.195zm1.418 6.312-.204-.102zm-1.419 1.573.12.194zm-.817-1.283-.143-.178zm.772-1.118-.215-.079v.002zm0-3.071-.215.076v.002zm-.772-1.13-.144.177zm-2.645 0-.144-.178v.001zm-.778 1.13-.215-.078zm0 3.07-.215.077v.002l.215-.078Zm.778 1.119-.143.178zm1.322 1.616q-1.17-.002-2.02-.528l-.24.39c.65.399 1.407.595 2.26.595zm-2.02-.528a3.56 3.56 0 0 1-1.334-1.48l-.409.204q.532 1.067 1.504 1.665zm-1.334-1.48q-.48-.952-.482-2.26h-.456q-.002 1.396.529 2.464zm-.482-2.26q.002-1.311.482-2.27l-.41-.203c-.355.714-.528 1.541-.528 2.474h.456Zm.482-2.27a3.55 3.55 0 0 1 1.334-1.485l-.24-.39a4 4 0 0 0-1.503 1.672zm1.334-1.485q.85-.527 2.02-.528V3.04c-.853 0-1.61.196-2.26.596zm2.02-.528c.782 0 1.452.178 2.02.528l.24-.39c-.65-.4-1.406-.595-2.26-.595zm2.02.528q.857.523 1.335 1.485l.409-.203a4 4 0 0 0-1.504-1.671zM30.4 5.511c.318.64.481 1.395.481 2.27h.457q.002-1.4-.53-2.473zm.481 2.27c0 .873-.163 1.624-.48 2.26l.408.204c.355-.71.529-1.534.529-2.463h-.457Zm-.48 2.26a3.56 3.56 0 0 1-1.335 1.48l.239.39a4 4 0 0 0 1.504-1.666zm-1.335 1.48q-.852.527-2.02.528v.457c.853 0 1.609-.196 2.259-.596zm-2.015-.44c.572 0 1.064-.152 1.46-.47l-.286-.356c-.3.241-.686.37-1.174.37zm1.46-.47q.576-.467.844-1.22l-.43-.153c-.154.43-.388.766-.7 1.017zm.843-1.218a4.7 4.7 0 0 0 .27-1.617h-.457a4.2 4.2 0 0 1-.242 1.46zm.27-1.617q0-.87-.27-1.61l-.429.156q.241.656.242 1.454zm-.269-1.609a2.7 2.7 0 0 0-.843-1.23l-.288.354c.312.255.546.595.7 1.029zm-.843-1.23c-.396-.323-.889-.477-1.461-.477v.457c.487 0 .872.13 1.173.374zm-1.461-.477c-.576 0-1.072.154-1.472.476l.287.356c.304-.246.694-.375 1.185-.375zm-1.473.477a2.77 2.77 0 0 0-.848 1.229l.43.156q.236-.65.707-1.03zm-.848 1.23a4.8 4.8 0 0 0-.263 1.61h.457q.001-.8.236-1.456zm-.263 1.61q0 .874.263 1.614l.43-.153a4.3 4.3 0 0 1-.236-1.462zm.264 1.616c.183.5.465.909.849 1.218l.286-.356a2.27 2.27 0 0 1-.707-1.019zm.85 1.218c.4.318.895.47 1.47.47v-.457c-.492 0-.882-.128-1.186-.37zm8.984-1.467-.228.001.003.548.386-.387zm-.011-2.072v-.228h-.23l.001.23zm.295 0v.229h.098l.068-.072zm3.474-3.69v-.228h-.099l-.068.072.167.157Zm2.032 0 .166.157.363-.385h-.53v.229Zm-3.962 4.201v.229h.098l.068-.072zm-.267 0v-.228h-.095l-.066.067.16.161Zm-3.122 4.519h-.228v.228h.228zm0-11.625V.248h-.228v.229zm1.697 0h.229V.248h-.229zm0 11.625v.228h.229v-.228zm3.809 0-.182.137.068.09h.114zm-3.122-4.144-.163-.16-.138.14.119.157zm1.17-1.186.181-.138-.159-.21-.185.187.162.16Zm4.035 5.33v.228h.46l-.278-.366zm-5.8-2.959-.011-2.072-.457.003.012 2.071zm-.24-1.842h.296v-.457h-.295v.457Zm.462-.072 3.474-3.69-.333-.313-3.473 3.69zm3.308-3.618h2.032v-.457h-2.032zm1.866-.385-3.962 4.2.332.314 3.962-4.2zm-3.796 4.129h-.267v.457h.267zm-.428.067-1.562 1.56.323.324 1.561-1.561zm-2.733 4.68V.477h-.456v11.625zM33.005.705h1.697V.248h-1.697zm1.469-.228v11.625h.457V.477zm.228 11.396h-1.697v.457h1.697zm3.991.091L35.571 7.82l-.364.275 3.122 4.144zm-3.141-3.846 1.169-1.186-.325-.32-1.17 1.186zm.824-1.209 4.036 5.33.364-.275-4.036-5.33zm4.218 4.964h-2.083v.457h2.083zm7.842-6.362.04.225.242-.043-.06-.238zm-1.538.273-.217.07.061.19.196-.035zm-.307-.562-.181.139.002.002.18-.141Zm-.556-.437.1-.206zm-2.083.153.125.19h.002zm.885 1.964-.052.222h.001zm1.385.318.052-.223zm1.794.857-.16.163zm.136 2.9-.183-.135zm-1.254.954-.09-.21h-.001zm-4.246-.278-.129.189h.001zm-1.136-1.788-.034-.226-.232.036.042.23zm1.641-.25.222-.053-.049-.204-.207.032zm.63.971-.13.188h.002zm2.577-.023.13.188.002-.001zm.193-1.544-.155.168.002.001zm-.925-.42.05-.222h-.001zm-1.476-.323-.05.222h.001zm-1.805-.886-.165.158zm-.148-2.889-.183-.136zm1.192-.903.09.21h.001zm3.968.284-.138.183h.001zm1.033 1.405-1.538.272.08.45 1.538-.273-.08-.45Zm-1.281.426a2 2 0 0 0-.344-.632l-.36.282q.187.239.27.492zm-.343-.63a1.74 1.74 0 0 0-.638-.504l-.199.411c.208.1.364.226.475.37zm-.638-.504c-.274-.133-.604-.193-.979-.193v.457c.329 0 .586.053.78.147l.2-.41Zm-.979-.193c-.515 0-.963.116-1.33.362l.254.38c.276-.185.63-.285 1.076-.285zm-1.329.361c-.375.247-.585.589-.585 1.014h.456c0-.248.112-.455.38-.632zm-.585 1.014c0 .356.136.657.407.88l.29-.352a.64.64 0 0 1-.24-.528zm.407.88c.255.211.644.367 1.137.483l.105-.444c-.47-.11-.777-.247-.952-.391zm1.138.484 1.385.318.102-.446-1.385-.317zm1.385.317c.78.18 1.333.453 1.685.798l.32-.326c-.435-.426-1.078-.726-1.902-.917zm1.685.798c.344.338.522.778.522 1.341h.457c0-.67-.217-1.233-.66-1.667zm.522 1.341q0 .711-.41 1.26l.368.273q.498-.676.499-1.533zm-.41 1.261q-.403.552-1.16.88l.18.42c.568-.245 1.021-.586 1.348-1.029zm-1.161.88q-.748.325-1.766.327v.457q1.096.001 1.947-.365l-.181-.42Zm-1.766.327c-.944 0-1.692-.201-2.261-.585l-.256.378c.665.449 1.51.664 2.517.664zm-2.26-.585c-.564-.383-.91-.924-1.04-1.64l-.45.082c.151.829.562 1.48 1.232 1.936l.257-.378Zm-1.23-1.373 1.64-.25-.068-.451-1.64.25.068.45Zm1.384-.423c.113.475.352.85.722 1.106l.26-.376c-.265-.183-.447-.455-.538-.836zm.724 1.107c.366.248.83.363 1.371.363v-.457c-.48 0-.845-.101-1.115-.284zm1.371.363c.586 0 1.081-.121 1.464-.387l-.26-.375c-.283.196-.677.305-1.204.305zm1.466-.388c.379-.267.596-.617.596-1.044h-.457c0 .247-.116.469-.402.67zm.596-1.044c0-.338-.13-.628-.381-.856l-.307.338a.67.67 0 0 1 .231.518zm-.38-.854c-.242-.224-.594-.376-1.03-.475l-.1.445c.396.09.661.218.82.365zm-1.031-.476-1.476-.323-.098.446 1.476.323zm-1.474-.323c-.79-.18-1.344-.46-1.691-.821l-.33.317c.433.449 1.082.759 1.92.95zm-1.69-.82C42.174 6.875 42 6.42 42 5.852h-.456c0 .672.21 1.244.642 1.696l.33-.315ZM42 5.852c0-.47.13-.87.386-1.215l-.366-.272a2.43 2.43 0 0 0-.476 1.487zm.386-1.215c.26-.349.623-.626 1.099-.828l-.179-.42q-.81.343-1.286.976zm1.1-.829q.71-.309 1.652-.31V3.04q-1.021-.002-1.833.348zm1.652-.31c.912 0 1.599.197 2.087.567l.276-.365c-.594-.448-1.39-.66-2.363-.66zm2.088.567c.498.372.827.87.989 1.503l.442-.113A3.08 3.08 0 0 0 47.5 3.699z" mask="url(#a)"/></svg>