<svg xmlns="http://www.w3.org/2000/svg" width="45" height="14" fill="none"><mask id="a" width="45" height="15" x="0" y="-1" fill="#000" maskUnits="userSpaceOnUse"><path fill="#fff" d="M0-1h45v15H0z"/><path d="M12.146 6.794q0 1.987-.727 3.418-.728 1.424-1.994 2.194-1.26.764-2.867.764-1.612 0-2.88-.764-1.26-.77-1.987-2.2T.964 6.794q0-1.989.727-3.413.727-1.43 1.988-2.194 1.266-.77 2.879-.77 1.605 0 2.867.77 1.266.764 1.994 2.194.727 1.424.727 3.413m-1.855 0q0-1.515-.49-2.552Q9.315 3.2 8.467 2.666a3.46 3.46 0 0 0-1.91-.54q-1.072 0-1.914.54Q3.8 3.2 3.309 4.242q-.485 1.037-.485 2.552c0 1.515.162 1.862.485 2.557q.49 1.037 1.334 1.576.842.534 1.915.534a3.5 3.5 0 0 0 1.909-.534q.849-.54 1.333-1.576.491-1.042.491-2.557m6.754 6.412q-.886 0-1.6-.327a2.7 2.7 0 0 1-1.134-.964q-.412-.63-.412-1.545 0-.789.303-1.297.303-.51.818-.807a4.3 4.3 0 0 1 1.152-.448 12 12 0 0 1 1.297-.23l1.357-.158q.521-.066.758-.212.236-.146.236-.473v-.042q0-.795-.448-1.23-.442-.437-1.321-.437-.915 0-1.443.406-.521.4-.721.891l-1.703-.388q.303-.848.885-1.37a3.6 3.6 0 0 1 1.351-.763 5.3 5.3 0 0 1 1.606-.243q.558 0 1.182.134.63.127 1.176.472.552.346.903.988.352.637.352 1.655V13h-1.77v-1.273h-.073a2.6 2.6 0 0 1-.527.691 2.8 2.8 0 0 1-.903.564q-.552.224-1.321.224m.393-1.454q.753 0 1.285-.298a2.1 2.1 0 0 0 .819-.775q.285-.486.284-1.037v-1.2q-.097.098-.375.182-.273.08-.625.14l-.684.103-.558.072q-.527.068-.964.224a1.66 1.66 0 0 0-.69.455q-.255.291-.255.776 0 .673.497 1.018.496.34 1.267.34Zm13.59-5.789-1.642.291a2 2 0 0 0-.327-.6 1.6 1.6 0 0 0-.594-.466q-.375-.183-.94-.182-.77 0-1.285.345-.515.34-.515.879 0 .467.346.752.345.285 1.115.466l1.479.34q1.285.297 1.915.915t.63 1.606a2.44 2.44 0 0 1-.485 1.491q-.478.649-1.339 1.018-.855.37-1.982.37-1.563 0-2.552-.667-.987-.673-1.212-1.909l1.752-.267q.163.685.673 1.037.508.345 1.327.345.891 0 1.424-.37.534-.375.534-.915 0-.435-.328-.733-.32-.297-.988-.449l-1.575-.345q-1.305-.297-1.928-.945-.618-.649-.618-1.643 0-.825.46-1.442.462-.62 1.273-.964.813-.352 1.861-.352 1.509 0 2.376.655.867.648 1.146 1.74ZM33.203 13V3.69h1.812V13zm.915-10.746q-.473 0-.812-.315a1.02 1.02 0 0 1-.334-.764q0-.448.334-.763a1.14 1.14 0 0 1 .812-.322q.473 0 .806.322.34.315.34.763 0 .443-.34.764a1.13 1.13 0 0 1-.806.315m10.311 3.71-1.643.29a2 2 0 0 0-.327-.6 1.6 1.6 0 0 0-.594-.466q-.375-.183-.94-.182-.768 0-1.284.345-.515.34-.515.879 0 .467.345.752t1.115.466l1.48.34q1.284.297 1.914.915t.63 1.606a2.44 2.44 0 0 1-.484 1.491q-.48.649-1.34 1.018-.855.37-1.981.37-1.564 0-2.552-.667-.989-.673-1.212-1.909l1.751-.267q.165.685.673 1.037.51.345 1.327.345.892 0 1.425-.37.533-.375.533-.915a.95.95 0 0 0-.327-.733q-.322-.297-.988-.449l-1.576-.345q-1.303-.297-1.927-.945-.618-.649-.619-1.643 0-.825.461-1.442.46-.62 1.273-.964.812-.352 1.86-.352 1.51 0 2.377.655.867.648 1.145 1.74"/></mask><path fill="#fff" d="M12.146 6.794q0 1.987-.727 3.418-.728 1.424-1.994 2.194-1.26.764-2.867.764-1.612 0-2.88-.764-1.26-.77-1.987-2.2T.964 6.794q0-1.989.727-3.413.727-1.43 1.988-2.194 1.266-.77 2.879-.77 1.605 0 2.867.77 1.266.764 1.994 2.194.727 1.424.727 3.413m-1.855 0q0-1.515-.49-2.552Q9.315 3.2 8.467 2.666a3.46 3.46 0 0 0-1.91-.54q-1.072 0-1.914.54Q3.8 3.2 3.309 4.242q-.485 1.037-.485 2.552c0 1.515.162 1.862.485 2.557q.49 1.037 1.334 1.576.842.534 1.915.534a3.5 3.5 0 0 0 1.909-.534q.849-.54 1.333-1.576.491-1.042.491-2.557m6.754 6.412q-.886 0-1.6-.327a2.7 2.7 0 0 1-1.134-.964q-.412-.63-.412-1.545 0-.789.303-1.297.303-.51.818-.807a4.3 4.3 0 0 1 1.152-.448 12 12 0 0 1 1.297-.23l1.357-.158q.521-.066.758-.212.236-.146.236-.473v-.042q0-.795-.448-1.23-.442-.437-1.321-.437-.915 0-1.443.406-.521.4-.721.891l-1.703-.388q.303-.848.885-1.37a3.6 3.6 0 0 1 1.351-.763 5.3 5.3 0 0 1 1.606-.243q.558 0 1.182.134.63.127 1.176.472.552.346.903.988.352.637.352 1.655V13h-1.77v-1.273h-.073a2.6 2.6 0 0 1-.527.691 2.8 2.8 0 0 1-.903.564q-.552.224-1.321.224m.393-1.454q.753 0 1.285-.298a2.1 2.1 0 0 0 .819-.775q.285-.486.284-1.037v-1.2q-.097.098-.375.182-.273.08-.625.14l-.684.103-.558.072q-.527.068-.964.224a1.66 1.66 0 0 0-.69.455q-.255.291-.255.776 0 .673.497 1.018.496.34 1.267.34Zm13.59-5.789-1.642.291a2 2 0 0 0-.327-.6 1.6 1.6 0 0 0-.594-.466q-.375-.183-.94-.182-.77 0-1.285.345-.515.34-.515.879 0 .467.346.752.345.285 1.115.466l1.479.34q1.285.297 1.915.915t.63 1.606a2.44 2.44 0 0 1-.485 1.491q-.478.649-1.339 1.018-.855.37-1.982.37-1.563 0-2.552-.667-.987-.673-1.212-1.909l1.752-.267q.163.685.673 1.037.508.345 1.327.345.891 0 1.424-.37.534-.375.534-.915 0-.435-.328-.733-.32-.297-.988-.449l-1.575-.345q-1.305-.297-1.928-.945-.618-.649-.618-1.643 0-.825.46-1.442.462-.62 1.273-.964.813-.352 1.861-.352 1.509 0 2.376.655.867.648 1.146 1.74ZM33.203 13V3.69h1.812V13zm.915-10.746q-.473 0-.812-.315a1.02 1.02 0 0 1-.334-.764q0-.448.334-.763a1.14 1.14 0 0 1 .812-.322q.473 0 .806.322.34.315.34.763 0 .443-.34.764a1.13 1.13 0 0 1-.806.315m10.311 3.71-1.643.29a2 2 0 0 0-.327-.6 1.6 1.6 0 0 0-.594-.466q-.375-.183-.94-.182-.768 0-1.284.345-.515.34-.515.879 0 .467.345.752t1.115.466l1.48.34q1.284.297 1.914.915t.63 1.606a2.44 2.44 0 0 1-.484 1.491q-.48.649-1.34 1.018-.855.37-1.981.37-1.564 0-2.552-.667-.989-.673-1.212-1.909l1.751-.267q.165.685.673 1.037.51.345 1.327.345.892 0 1.425-.37.533-.375.533-.915a.95.95 0 0 0-.327-.733q-.322-.297-.988-.449l-1.576-.345q-1.303-.297-1.927-.945-.618-.649-.619-1.643 0-.825.461-1.442.46-.62 1.273-.964.812-.352 1.86-.352 1.51 0 2.377.655.867.648 1.145 1.74"/><path fill="#fff" d="m11.419 10.212.233.12v-.001zm-1.994 2.194.136.225zm-5.746 0-.137.224h.001zm-1.988-2.2.234-.12zm0-6.825.234.12zm1.988-2.194.136.225zm5.746 0-.137.225h.001zm1.994 2.194-.234.12zM9.8 4.242l-.238.11.001.002zM8.467 2.666l-.142.221.002.002zm-3.824 0 .14.222h.001zM3.309 4.242l-.237-.112zm0 5.11-.238.11v.002zm1.334 1.575-.142.221.001.001zm3.824 0 .14.222zM9.8 9.351l-.237-.112v.001zm2.083-2.557c0 1.293-.236 2.39-.698 3.299l.468.238c.507-.998.755-2.18.755-3.537zm-.698 3.299c-.465.91-1.097 1.603-1.897 2.089l.273.448c.89-.54 1.586-1.31 2.091-2.299zM9.289 12.18q-1.192.725-2.731.726v.525c1.114 0 2.118-.265 3.003-.801zm-2.731.726q-1.546-.002-2.744-.726l-.27.45c.888.536 1.896.801 3.014.801zm-2.742-.725q-1.194-.726-1.891-2.094l-.468.238q.758 1.492 2.085 2.305zm-1.891-2.095c-.462-.91-.699-2.004-.699-3.293H.701c0 1.353.248 2.533.756 3.531zm-.699-3.293c0-1.294.237-2.388.699-3.293l-.468-.239C.95 4.256.701 5.437.701 6.794zM1.925 3.5c.465-.913 1.095-1.606 1.89-2.088l-.272-.45q-1.329.809-2.086 2.3zm1.89-2.088Q5.013.682 6.558.68V.155Q4.878.154 3.543.963zM6.558.68c1.027 0 1.934.246 2.73.732L9.56.963C8.676.423 7.672.155 6.558.155zm2.731.732c.799.482 1.431 1.175 1.896 2.088l.468-.238C11.148 2.27 10.45 1.5 9.56.962zm1.896 2.089c.462.905.698 1.999.698 3.293h.526c0-1.357-.249-2.538-.757-3.532zm-.631 3.293c0-1.037-.168-1.929-.516-2.664l-.475.224c.306.647.466 1.457.466 2.44zm-.515-2.663c-.342-.734-.818-1.3-1.432-1.687l-.28.445c.517.324.93.808 1.235 1.464zm-1.43-1.686a3.73 3.73 0 0 0-2.051-.58v.524c.664 0 1.25.168 1.767.498zm-2.051-.58q-1.145-.002-2.057.58l.283.442q.772-.497 1.774-.498zm-2.056.58c-.61.386-1.085.952-1.43 1.685l.475.224c.31-.657.723-1.141 1.236-1.466zM3.072 4.13c-.345.735-.51 1.626-.51 2.663h.525c0-.984.157-1.794.46-2.44zm-.51 2.663c0 1.036.165 1.93.51 2.668l.475-.221c-.303-.651-.46-1.464-.46-2.447zm.51 2.67c.345.729.82 1.294 1.429 1.684l.283-.442c-.514-.33-.928-.814-1.237-1.467zm1.43 1.685q.912.575 2.056.574v-.525q-1.003-.001-1.775-.493zm2.056.574q1.138.001 2.05-.574l-.281-.444a3.23 3.23 0 0 1-1.77.493zm2.05-.574c.613-.39 1.089-.957 1.43-1.686l-.475-.223c-.306.652-.719 1.136-1.237 1.466zm1.43-1.686c.348-.739.516-1.632.516-2.67h-.525c0 .984-.16 1.796-.466 2.447zm5.406 3.416-.11.238h.001zm-1.133-.964-.22.144.001.001zm-.109-2.842.226.134zm.818-.807.131.228zm2.449-.678-.03-.261h-.001l.03.26Zm1.357-.158.03.26h.004zm.758-.212.138.224zm-.212-1.746-.184.187v.002zm-2.764-.03.16.208zm-.721.891-.058.256.217.05.084-.207zm-1.703-.388-.247-.088-.1.279.289.065zm.885-1.37.175.196zm1.351-.763.078.25h.002zm2.788-.11-.054.257.002.001zm1.176.473-.14.222zm.903.988-.23.126v.001zM21.64 13v.263h.262V13zm-1.77 0h-.263v.263h.263zm0-1.273h.262v-.262h-.262zm-.073 0v-.262h-.162l-.073.145zm-.527.691-.182-.189.182.19Zm-.903.564-.099-.243zm.357-1.527-.126-.23h-.001zm.819-.776-.227-.133zm.284-2.237h.263v-.634l-.448.449zm-.375.182.073.252h.003zm-.625.14.04.259h.005zm-.684.103.033.26h.004zm-.558.072.033.26h.002zm-.964.224-.089-.246h-.001zm-.69.455-.198-.173.197.173Zm.242 1.794-.15.216h.002zm.873 1.531a3.5 3.5 0 0 1-1.491-.303l-.219.477a4.1 4.1 0 0 0 1.71.352v-.525Zm-1.49-.302a2.43 2.43 0 0 1-1.025-.871l-.438.29q.462.694 1.242 1.057zm-1.024-.87c-.241-.369-.37-.831-.37-1.401h-.525c0 .65.147 1.218.455 1.689zm-.37-1.401c0-.494.096-.876.267-1.163l-.452-.269c-.233.392-.34.874-.34 1.432zm.267-1.163q.268-.45.723-.713l-.262-.455a2.5 2.5 0 0 0-.913.9zm.723-.713q.48-.277 1.082-.42l-.122-.511a4.5 4.5 0 0 0-1.222.476zm1.082-.42a11 11 0 0 1 1.267-.226l-.062-.521q-.675.08-1.327.236zm1.266-.226 1.358-.157-.06-.522-1.358.158zm1.36-.157c.358-.046.656-.122.863-.25l-.276-.447c-.108.067-.315.132-.653.176l.067.52Zm.863-.25c.25-.153.361-.406.361-.696h-.525c0 .146-.047.21-.111.25l.275.447Zm.361-.696v-.042h-.525v.042zm0-.042c0-.58-.165-1.066-.528-1.419l-.366.377c.235.229.369.563.369 1.042zm-.527-1.418c-.361-.356-.88-.512-1.505-.512V5.3c.545 0 .908.135 1.137.36l.368-.374Zm-1.505-.512c-.647 0-1.191.144-1.603.461l.32.416c.291-.224.71-.351 1.283-.351zm-1.603.46c-.375.29-.65.621-.804 1.001l.486.198c.112-.275.319-.537.638-.782l-.32-.416Zm-.503.844-1.703-.388-.116.512 1.703.388zm-1.514-.043c.19-.531.462-.949.813-1.263l-.35-.391c-.426.38-.743.876-.957 1.477zm.813-1.263q.545-.489 1.254-.708l-.155-.502a3.85 3.85 0 0 0-1.45.819zm1.256-.709q.722-.23 1.526-.23v-.525q-.88 0-1.685.255zm1.526-.23q.526 0 1.128.127l.11-.513a6 6 0 0 0-1.238-.14zm1.13.128q.582.118 1.088.437l.28-.443a3.7 3.7 0 0 0-1.264-.509zm1.089.438c.325.204.596.497.812.891l.46-.252a2.9 2.9 0 0 0-.994-1.084zm.812.892c.206.373.32.877.32 1.528h.524c0-.706-.121-1.306-.384-1.782zm.32 1.528V13h.524V6.818h-.525Zm.262 5.92h-1.77v.525h1.77zM20.13 13v-1.273h-.525V13zm-.262-1.535h-.073v.525h.073zm-.308.145a2.3 2.3 0 0 1-.474.62l.364.377q.379-.363.58-.762zm-.474.62a2.6 2.6 0 0 1-.82.509l.198.486a3.1 3.1 0 0 0 .986-.618l-.364-.378Zm-.82.509c-.329.133-.734.204-1.222.204v.526q.807.002 1.42-.244zm-.828-.725c.535 0 1.01-.106 1.412-.33l-.255-.459c-.309.172-.69.264-1.157.264zm1.411-.33c.397-.218.706-.508.919-.873l-.454-.264c-.16.273-.396.5-.718.678l.253.46Zm.918-.872q.32-.545.321-1.17h-.525q0 .479-.249.904zm.321-1.17v-1.2h-.525v1.2zm-.448-1.385c-.016.015-.086.06-.267.116l.153.502c.19-.058.371-.133.485-.247zm-.263.115a6 6 0 0 1-.596.133l.09.517q.361-.062.652-.146zm-.592.132-.682.103.075.52.688-.104-.08-.519Zm-.678.102-.56.073.071.52.556-.072zm-.557.073a4.8 4.8 0 0 0-1.02.238l.178.493q.405-.146.908-.21zm-1.021.238q-.485.176-.798.528l.395.346c.14-.16.331-.289.584-.381zm-.798.528c-.222.253-.32.579-.32.949h.525c0-.277.072-.468.19-.603zm-.32.949c0 .523.2.948.61 1.234l.3-.431c-.252-.176-.385-.43-.385-.803zm.612 1.235c.385.263.863.385 1.415.385v-.525c-.476 0-.842-.105-1.12-.294zm15.005-5.666.045.259.279-.05-.07-.274zm-1.643.291-.25.082.071.217.225-.04zm-.327-.6-.209.16.002.003zm-.594-.466.114-.237zm-2.225.163.145.22.002-.002zm.946 2.097-.06.256h.001zm1.479.34.059-.256-.06.256Zm1.915.915-.184.187zm.145 3.097-.21-.156zm-1.339 1.018-.104-.241zm-4.534-.297-.147.217zm-1.212-1.909-.04-.26-.266.041.048.266zm1.752-.267.255-.06-.056-.236-.239.037zm.673 1.037-.15.216.002.001zm2.751-.024.15.215h.002l-.152-.216Zm.206-1.649-.178.193.002.001zm-.988-.449.059-.256h-.002zm-1.575-.345-.059.256h.002zM24.53 7.97l-.19.18.001.002.19-.182Zm-.157-3.085-.21-.157zm1.272-.964.103.241h.002zm4.237.303-.158.21zm1.1 1.48-1.643.292.092.517 1.642-.291-.091-.517Zm-1.348.469a2.2 2.2 0 0 0-.37-.681l-.413.325q.198.251.284.519zm-.368-.678a1.9 1.9 0 0 0-.688-.544l-.229.473c.22.106.383.238.5.39l.417-.32Zm-.688-.544c-.296-.143-.652-.208-1.054-.208v.525c.35 0 .62.057.825.156l.23-.473Zm-1.054-.208c-.552 0-1.035.125-1.43.39l.292.436c.29-.195.665-.3 1.138-.3zm-1.43.389c-.404.267-.632.636-.632 1.098h.525c0-.257.115-.474.397-.66zm-.632 1.098c0 .386.147.712.44.954l.335-.405a.67.67 0 0 1-.25-.549zm.44.954c.277.228.696.395 1.223.52l.12-.511c-.5-.118-.824-.262-1.008-.414l-.334.405Zm1.224.52 1.479.34.117-.512-1.478-.34zm1.479.34c.83.192 1.417.48 1.79.846l.368-.375c-.468-.458-1.158-.78-2.04-.983zm1.79.846c.364.357.552.822.552 1.419h.525c0-.72-.232-1.326-.71-1.794zm.552 1.419c0 .503-.145.945-.434 1.335l.422.312a2.7 2.7 0 0 0 .537-1.647zm-.434 1.335c-.287.39-.694.702-1.232.933l.208.482c.61-.261 1.096-.628 1.447-1.103zm-1.232.933q-.794.346-1.878.348v.525c.78 0 1.477-.127 2.086-.39zm-1.878.348c-1.006 0-1.801-.214-2.405-.622l-.293.436c.713.481 1.62.711 2.698.711zM25 12.305c-.597-.407-.964-.98-1.101-1.74l-.517.094c.161.89.603 1.589 1.323 2.08l.295-.435Zm-1.32-1.433 1.751-.267-.079-.52-1.751.267zm1.457-.466c.121.51.378.916.778 1.192l.299-.432c-.279-.193-.47-.479-.567-.882zm.78 1.193c.395.268.894.39 1.475.39v-.524c-.51 0-.896-.108-1.18-.3zm1.475.39c.628 0 1.16-.13 1.574-.416l-.3-.431c-.297.206-.714.323-1.274.323v.525Zm1.576-.417c.408-.288.644-.666.644-1.13h-.525c0 .256-.12.488-.422.7zm.644-1.13c0-.366-.141-.68-.413-.927l-.353.388a.69.69 0 0 1 .241.54h.525Zm-.411-.926c-.262-.242-.642-.406-1.108-.512l-.117.513c.423.096.702.23.868.385zm-1.11-.512-1.576-.345-.113.512 1.576.346zm-1.574-.345c-.842-.192-1.43-.49-1.797-.872l-.378.365c.465.483 1.162.815 2.058 1.019zm-1.796-.87c-.36-.379-.545-.859-.545-1.462h-.525c0 .722.226 1.337.69 1.824zm-.545-1.462c0-.497.137-.922.408-1.286l-.42-.313a2.6 2.6 0 0 0-.514 1.599zm.408-1.286c.276-.37.66-.664 1.165-.879l-.205-.483c-.578.246-1.042.594-1.38 1.049zm1.167-.88c.503-.217 1.086-.33 1.756-.33v-.524q-1.094-.002-1.965.373zm1.756-.33c.97 0 1.7.212 2.218.602l.316-.419c-.638-.482-1.492-.707-2.534-.707zm2.219.603c.527.395.876.923 1.048 1.594l.509-.13c-.2-.782-.615-1.415-1.243-1.884zM33.203 13h-.263v.263h.263zm0-9.31v-.262h-.263v.263zm1.812 0h.263v-.262h-.263zm0 9.31v.263h.263V13zm-1.71-11.061-.181.19.003.002.179-.192Zm0-1.527.181.19zm1.62 0L34.741.6l.003.003.18-.192Zm0 1.527.18.19zM33.464 13V3.69h-.525V13zm-.262-9.047h1.812v-.525h-1.812zm1.55-.262V13h.525V3.69h-.526Zm.262 9.046h-1.812v.526h1.812zm-.897-10.745a.9.9 0 0 1-.634-.245l-.357.384c.276.257.611.386.991.386zm-.63-.242a.76.76 0 0 1-.253-.575h-.525c0 .37.143.692.414.953zm-.253-.575a.75.75 0 0 1 .251-.573l-.36-.381a1.27 1.27 0 0 0-.416.954zm.251-.573a.88.88 0 0 1 .632-.249v-.525c-.382 0-.717.132-.993.393zm.632-.249c.249 0 .452.082.624.248l.364-.378a1.38 1.38 0 0 0-.988-.395zm.627.251a.74.74 0 0 1 .256.571h.525a1.27 1.27 0 0 0-.423-.956zm.256.571c0 .219-.08.406-.257.573l.36.382c.276-.26.422-.583.422-.955zm-.257.573a.87.87 0 0 1-.626.244v.525c.38 0 .714-.13.986-.387zm9.685 4.215.046.259.278-.05-.07-.274zm-1.643.291-.25.082.072.217.224-.04zm-.327-.6-.208.16.002.003zm-.594-.466.115-.237zm-2.224.163.144.22.002-.002zm.945 2.097-.06.256h.002zm1.48.34.058-.256zm1.914.915-.183.187zm.146 3.097-.211-.156zm-1.34 1.018-.103-.241zm-4.533-.297-.148.217h.001zm-1.212-1.909-.04-.26-.267.041.048.266zm1.751-.267.256-.06-.056-.236-.24.037zm.673 1.037-.15.216.003.001zm2.752-.024.15.215h.001l-.151-.216Zm.206-1.649-.178.193.001.001zm-.988-.449.058-.256h-.002zm-1.576-.345-.058.256h.002zm-1.927-.945-.19.18v.002zm-.158-3.085-.21-.157zm1.273-.964.103.241h.001zm4.236.303-.158.21h.001zm1.1 1.48-1.642.292.091.517 1.643-.291zm-1.347.469a2.2 2.2 0 0 0-.37-.681l-.413.325q.197.251.284.519l.5-.163Zm-.368-.678a1.9 1.9 0 0 0-.688-.544l-.23.473q.328.16.5.39l.418-.32Zm-.688-.544c-.297-.143-.652-.208-1.054-.208v.525c.35 0 .62.057.825.156zm-1.054-.208c-.553 0-1.035.125-1.431.39l.292.436c.29-.195.665-.3 1.139-.3zm-1.43.389c-.404.267-.633.636-.633 1.098h.525c0-.257.115-.474.397-.66zm-.633 1.098c0 .386.148.712.441.954l.334-.405a.66.66 0 0 1-.25-.549zm.441.954c.277.228.695.395 1.222.52l.12-.511c-.499-.118-.824-.262-1.008-.414zm1.224.52 1.479.34.117-.512-1.479-.34zm1.478.34c.831.192 1.418.48 1.79.846l.368-.375c-.467-.458-1.158-.78-2.04-.983zm1.79.846c.364.357.552.822.552 1.419h.525c0-.72-.232-1.326-.709-1.794zm.552 1.419c0 .503-.144.945-.433 1.335l.422.312a2.7 2.7 0 0 0 .536-1.647zm-.433 1.335c-.288.39-.694.702-1.232.933l.207.482c.61-.261 1.096-.628 1.447-1.103zm-1.233.933q-.794.347-1.877.348v.525c.78 0 1.477-.127 2.086-.39zm-1.877.348c-1.007 0-1.802-.214-2.405-.622l-.294.436c.714.481 1.62.711 2.699.711zm-2.404-.62c-.597-.407-.964-.98-1.102-1.74l-.517.094c.162.89.603 1.589 1.323 2.08l.296-.435Zm-1.32-1.433 1.75-.267-.078-.52-1.752.267zm1.456-.466c.122.51.379.916.779 1.192l.298-.432c-.278-.193-.47-.479-.566-.882zm.78 1.193c.396.268.895.39 1.475.39v-.524c-.51 0-.896-.108-1.18-.3zm1.475.39c.628 0 1.161-.13 1.574-.416l-.299-.431c-.298.206-.715.323-1.275.323v.525Zm1.576-.417c.409-.288.645-.666.645-1.13h-.526c0 .256-.12.488-.422.7zm.645-1.13c0-.366-.142-.68-.414-.927l-.353.388a.69.69 0 0 1 .241.54h.526Zm-.412-.926c-.262-.242-.642-.406-1.108-.512l-.116.513c.422.096.701.23.868.385zm-1.11-.512-1.576-.345-.112.512 1.576.346zm-1.574-.345c-.841-.192-1.429-.49-1.796-.872l-.378.365c.465.483 1.162.815 2.058 1.019zm-1.795-.87c-.36-.379-.546-.859-.546-1.462h-.525c0 .722.227 1.337.69 1.824zm-.546-1.462c0-.497.138-.922.409-1.286l-.421-.313a2.6 2.6 0 0 0-.513 1.599zm.409-1.286c.275-.37.66-.664 1.165-.879l-.206-.483c-.578.246-1.042.594-1.38 1.049l.42.313Zm1.166-.88c.503-.217 1.087-.33 1.757-.33v-.524q-1.095-.002-1.965.373zm1.757-.33c.97 0 1.7.212 2.217.602l.317-.419c-.638-.482-1.493-.707-2.534-.707zm2.218.603c.528.395.877.923 1.049 1.594l.508-.13c-.2-.782-.614-1.415-1.242-1.884z" mask="url(#a)"/></svg>