<svg xmlns="http://www.w3.org/2000/svg" width="1007" height="266" fill="none"><path fill="#9DCDA9" d="M524.827 229.755v-74.796h28.85c26.713 0 42.207 15.387 42.207 36.971v.213c0 21.584-15.708 37.612-42.634 37.612zm20.729-18.378h8.442c12.394 0 20.622-6.839 20.622-18.913v-.214c0-11.967-8.228-18.913-20.622-18.913h-8.442zm60.975 18.378v-74.796h60.158v17.63h-39.642v11.327h35.902v16.348h-35.902v11.861h40.176v17.63zm100.654 1.282c-13.25 0-25.859-4.167-35.048-12.394l11.54-13.784c7.373 5.876 15.601 8.975 24.256 8.975 5.556 0 8.548-1.923 8.548-5.129v-.213c0-3.099-2.458-4.809-12.609-7.159-15.921-3.633-28.209-8.121-28.209-23.508v-.214c0-13.89 11.006-23.934 28.957-23.934 12.715 0 22.653 3.419 30.773 9.937l-10.364 14.639c-6.839-4.809-14.318-7.373-20.943-7.373-5.022 0-7.48 2.137-7.48 4.808v.214c0 3.419 2.565 4.915 12.929 7.266 17.203 3.74 27.889 9.296 27.889 23.293v.214c0 15.28-12.075 24.362-30.239 24.362m40.747-1.282v-74.796h20.836v74.796zm72.675 1.496c-23.294 0-40.711-16.028-40.711-38.68v-.214c0-21.798 17.097-38.894 40.283-38.894 13.143 0 22.439 4.06 30.346 10.899l-12.181 14.639c-5.342-4.488-10.685-7.053-18.058-7.053-10.792 0-19.126 9.083-19.126 20.516v.214c0 12.074 8.441 20.729 20.302 20.729 5.022 0 8.868-1.069 11.967-3.099v-9.082h-14.746v-15.173h34.407v33.658c-7.907 6.518-18.913 11.54-32.483 11.54m43.975-1.496v-74.796h19.34l30.774 39.535v-39.535h20.515v74.796h-18.165l-31.948-41.031v41.031zM524.827 116.173V41.377h20.729v27.995h26.606V41.377h20.73v74.796h-20.73V87.751h-26.606v28.422zm75.303 0 31.842-75.33h19.981l31.842 75.33H661.57l-5.45-13.356h-28.85l-5.342 13.356zm33.231-29.49h16.776l-8.335-21.264zm67.484 29.49V88.178l-28.422-46.801h23.614l15.387 27.247 15.493-27.247h23.187l-28.423 46.48v28.316zm86.254 1.496c-23.08 0-40.176-17.203-40.176-38.68v-.214c0-21.477 17.31-38.894 40.389-38.894s40.177 17.203 40.177 38.68v.214c0 21.477-17.31 38.894-40.39 38.894m.213-18.699c11.434 0 19.02-9.19 19.02-19.981v-.214c0-10.792-7.8-20.195-19.233-20.195-11.326 0-18.913 9.19-18.913 19.981v.214c0 10.792 7.8 20.195 19.126 20.195m88.586 18.699c-23.08 0-40.176-17.203-40.176-38.68v-.214c0-21.477 17.31-38.894 40.39-38.894s40.176 17.203 40.176 38.68v.214c0 21.477-17.31 38.894-40.39 38.894m.214-18.699c11.433 0 19.02-9.19 19.02-19.981v-.214c0-10.792-7.8-20.195-19.234-20.195-11.326 0-18.912 9.19-18.912 19.981v.214c0 10.792 7.8 20.195 19.126 20.195m50.974 17.203V41.377h21.905l17.844 28.957 17.844-28.957h21.901v74.796h-20.619V73.219l-19.126 29.277h-.427l-19.02-29.063v42.74z"/><path fill="#6EEF8A" d="M19.943 53.408 185.764.393c5.261-1.682 10.637 2.244 10.637 7.767v48.733c0 9.502 7.703 17.206 17.205 17.206h28.898c9.502 0 17.205-7.704 17.205-17.206V8.265c0-5.524 5.376-9.45 10.637-7.767l165.494 52.91a28.68 28.68 0 0 1 19.943 27.314v103.845a28.675 28.675 0 0 1-19.943 27.313l-165.493 52.911c-5.262 1.682-10.638-2.243-10.638-7.767v-49.048c0-9.502-7.703-17.205-17.205-17.205h-28.897c-9.503 0-17.206 7.703-17.206 17.205v49.153c0 5.523-5.376 9.449-10.637 7.767L19.944 211.88A28.67 28.67 0 0 1 0 184.567V80.722a28.68 28.68 0 0 1 19.943-27.314"/></svg>