<svg width="1007" height="266" viewBox="0 0 1007 266" fill="none" xmlns="http://www.w3.org/2000/svg">
<path d="M524.827 229.755V154.959H553.677C580.39 154.959 595.884 170.346 595.884 191.93V192.143C595.884 213.727 580.176 229.755 553.25 229.755H524.827ZM545.556 211.377H553.998C566.392 211.377 574.62 204.538 574.62 192.464V192.25C574.62 180.283 566.392 173.337 553.998 173.337H545.556V211.377Z" fill="#9DCDA9"></path>
<path d="M606.531 229.755V154.959H666.689V172.589H627.047V183.916H662.949V200.264H627.047V212.125H667.223V229.755H606.531Z" fill="#9DCDA9"></path>
<path d="M707.185 231.037C693.935 231.037 681.326 226.87 672.137 218.643L683.677 204.859C691.05 210.735 699.278 213.834 707.933 213.834C713.489 213.834 716.481 211.911 716.481 208.705V208.492C716.481 205.393 714.023 203.683 703.872 201.333C687.951 197.7 675.663 193.212 675.663 177.825V177.611C675.663 163.721 686.669 153.677 704.62 153.677C717.335 153.677 727.273 157.096 735.393 163.614L725.029 178.253C718.19 173.444 710.711 170.88 704.086 170.88C699.064 170.88 696.606 173.017 696.606 175.688V175.902C696.606 179.321 699.171 180.817 709.535 183.168C726.738 186.908 737.424 192.464 737.424 206.461V206.675C737.424 221.955 725.349 231.037 707.185 231.037Z" fill="#9DCDA9"></path>
<path d="M747.932 229.755V154.959H768.768V229.755H747.932Z" fill="#9DCDA9"></path>
<path d="M820.607 231.251C797.313 231.251 779.896 215.223 779.896 192.571V192.357C779.896 170.559 796.993 153.463 820.179 153.463C833.322 153.463 842.618 157.523 850.525 164.362L838.344 179.001C833.002 174.513 827.659 171.948 820.286 171.948C809.494 171.948 801.16 181.031 801.16 192.464V192.678C801.16 204.752 809.601 213.407 821.462 213.407C826.484 213.407 830.33 212.338 833.429 210.308V201.226H818.683V186.053H853.09V219.711C845.183 226.229 834.177 231.251 820.607 231.251Z" fill="#9DCDA9"></path>
<path d="M864.582 229.755V154.959H883.922L914.696 194.494V154.959H935.211V229.755H917.046L885.098 188.724V229.755H864.582Z" fill="#9DCDA9"></path>
<path d="M524.827 116.173V41.377H545.556V69.3722H572.162V41.377H592.892V116.173H572.162V87.7507H545.556V116.173H524.827Z" fill="#9DCDA9"></path>
<path d="M600.13 116.173L631.972 40.8428H651.953L683.795 116.173H661.57L656.12 102.817H627.27L621.928 116.173H600.13ZM633.361 86.6821H650.137L641.802 65.4187L633.361 86.6821Z" fill="#9DCDA9"></path>
<path d="M700.845 116.173V88.1781L672.423 41.377H696.037L711.424 68.6242L726.917 41.377H750.104L721.681 87.8575V116.173H700.845Z" fill="#9DCDA9"></path>
<path d="M787.099 117.669C764.019 117.669 746.923 100.466 746.923 78.9888V78.7751C746.923 57.2979 764.233 39.8811 787.312 39.8811C810.392 39.8811 827.489 57.0842 827.489 78.5614V78.7751C827.489 100.252 810.179 117.669 787.099 117.669ZM787.312 98.9701C798.746 98.9701 806.332 89.7808 806.332 78.9888V78.7751C806.332 67.9831 798.532 58.5801 787.099 58.5801C775.773 58.5801 768.186 67.7694 768.186 78.5614V78.7751C768.186 89.5671 775.986 98.9701 787.312 98.9701Z" fill="#9DCDA9"></path>
<path d="M875.898 117.669C852.818 117.669 835.722 100.466 835.722 78.9888V78.7751C835.722 57.2979 853.032 39.8811 876.112 39.8811C899.192 39.8811 916.288 57.0842 916.288 78.5614V78.7751C916.288 100.252 898.978 117.669 875.898 117.669ZM876.112 98.9701C887.545 98.9701 895.132 89.7808 895.132 78.9888V78.7751C895.132 67.9831 887.332 58.5801 875.898 58.5801C864.572 58.5801 856.986 67.7694 856.986 78.5614V78.7751C856.986 89.5671 864.786 98.9701 876.112 98.9701Z" fill="#9DCDA9"></path>
<path d="M927.086 116.173V41.377H948.991L966.835 70.3338L984.679 41.377H1006.58V116.173H985.961V73.2188L966.835 102.496H966.408L947.388 73.4325V116.173H927.086Z" fill="#9DCDA9"></path>
<path d="M19.9431 53.4083L185.764 0.393174C191.025 -1.28889 196.401 2.6365 196.401 8.16V56.8932C196.401 66.3955 204.104 74.0986 213.606 74.0986H242.504C252.006 74.0986 259.709 66.3955 259.709 56.8932V8.26459C259.709 2.74108 265.085 -1.1843 270.346 0.497761L435.84 53.4083C447.72 57.2066 455.783 68.2491 455.783 80.722V184.567C455.783 197.04 447.72 208.082 435.84 211.88L270.347 264.791C265.085 266.473 259.709 262.548 259.709 257.024V207.976C259.709 198.474 252.006 190.771 242.504 190.771H213.607C204.104 190.771 196.401 198.474 196.401 207.976V257.129C196.401 262.652 191.025 266.578 185.764 264.896L19.9431 211.88C8.06263 208.082 0 197.04 0 184.567V80.722C0 68.249 8.06264 57.2066 19.9431 53.4083Z" fill="#6EEF8A"></path>
</svg>
