<svg width="1015" height="266" viewBox="0 0 1015 266" fill="none" xmlns="http://www.w3.org/2000/svg">
<path d="M524.827 229.755V154.959H553.677C580.39 154.959 595.883 170.345 595.883 191.929V192.143C595.883 213.727 580.176 229.755 553.25 229.755H524.827ZM545.556 211.376H553.998C566.392 211.376 574.62 204.538 574.62 192.464V192.25C574.62 180.283 566.392 173.337 553.998 173.337H545.556V211.376ZM606.531 229.755V154.959H666.689V172.589H627.047V183.916H662.949V200.264H627.047V212.124H667.223V229.755H606.531ZM707.184 231.037C693.935 231.037 681.326 226.87 672.137 218.642L683.677 204.858C691.05 210.735 699.277 213.834 707.932 213.834C713.489 213.834 716.481 211.911 716.481 208.705V208.491C716.481 205.393 714.023 203.683 703.872 201.332C687.951 197.699 675.663 193.212 675.663 177.825V177.611C675.663 163.721 686.669 153.676 704.62 153.676C717.335 153.676 727.273 157.096 735.393 163.614L725.029 178.252C718.19 173.444 710.711 170.88 704.086 170.88C699.064 170.88 696.606 173.017 696.606 175.688V175.902C696.606 179.321 699.171 180.817 709.535 183.168C726.738 186.907 737.424 192.464 737.424 206.461V206.675C737.424 221.955 725.349 231.037 707.184 231.037ZM747.932 229.755V154.959H768.768V229.755H747.932ZM820.607 231.251C797.313 231.251 779.896 215.223 779.896 192.57V192.357C779.896 170.559 796.993 153.463 820.179 153.463C833.322 153.463 842.618 157.523 850.525 164.362L838.344 179C833.002 174.513 827.659 171.948 820.286 171.948C809.494 171.948 801.16 181.031 801.16 192.464V192.677C801.16 204.752 809.601 213.407 821.462 213.407C826.484 213.407 830.33 212.338 833.429 210.308V201.225H818.683V186.053H853.09V219.711C845.183 226.229 834.177 231.251 820.607 231.251ZM864.582 229.755V154.959H883.922L914.695 194.494V154.959H935.211V229.755H917.046L885.098 188.724V229.755H864.582Z" fill="#141310"></path>
<path d="M524.827 116.173V41.3772H545.556V69.3723H572.162V41.3772H592.892V116.173H572.162V87.7508H545.556V116.173H524.827ZM600.13 116.173L631.972 40.8429H651.953L683.795 116.173H661.57L656.12 102.817H627.27L621.928 116.173H600.13ZM633.361 86.6823H650.137L641.802 65.4188L633.361 86.6823ZM700.845 116.173V88.1782L672.423 41.3772H696.037L711.424 68.6243L726.917 41.3772H750.104L721.681 87.8576V116.173H700.845ZM787.099 117.669C764.019 117.669 746.922 100.466 746.922 78.989V78.7752C746.922 57.2981 764.232 39.8812 787.312 39.8812C810.392 39.8812 827.489 57.0844 827.489 78.5615V78.7752C827.489 100.252 810.179 117.669 787.099 117.669ZM787.312 98.9702C798.746 98.9702 806.332 89.781 806.332 78.989V78.7752C806.332 67.9832 798.532 58.5803 787.099 58.5803C775.772 58.5803 768.186 67.7695 768.186 78.5615V78.7752C768.186 89.5673 775.986 98.9702 787.312 98.9702ZM875.898 117.669C852.818 117.669 835.722 100.466 835.722 78.989V78.7752C835.722 57.2981 853.032 39.8812 876.112 39.8812C899.192 39.8812 916.288 57.0844 916.288 78.5615V78.7752C916.288 100.252 898.978 117.669 875.898 117.669ZM876.112 98.9702C887.545 98.9702 895.132 89.781 895.132 78.989V78.7752C895.132 67.9832 887.331 58.5803 875.898 58.5803C864.572 58.5803 856.986 67.7695 856.986 78.5615V78.7752C856.986 89.5673 864.786 98.9702 876.112 98.9702ZM927.086 116.173V41.3772H948.991L966.835 70.334L984.679 41.3772H1006.58V116.173H985.961V73.219L966.835 102.496H966.408L947.388 73.4327V116.173H927.086Z" fill="#141310"></path>
<path fill-rule="evenodd" clip-rule="evenodd" d="M19.9431 53.4083L185.764 0.393174C191.025 -1.28889 196.401 2.6365 196.401 8.16V56.8932C196.401 66.3955 204.104 74.0986 213.606 74.0986H242.504C252.006 74.0986 259.709 66.3955 259.709 56.8932V8.26459C259.709 2.74108 265.085 -1.1843 270.346 0.497761L435.84 53.4083C447.72 57.2066 455.783 68.2491 455.783 80.722V184.567C455.783 197.04 447.72 208.082 435.84 211.88L270.347 264.791C265.085 266.473 259.709 262.548 259.709 257.024V207.976C259.709 198.474 252.006 190.771 242.504 190.771H213.607C204.104 190.771 196.401 198.474 196.401 207.976V257.129C196.401 262.652 191.025 266.578 185.764 264.896L19.9431 211.88C8.06263 208.082 0 197.04 0 184.567V80.722C0 68.249 8.06264 57.2066 19.9431 53.4083Z" fill="#141310"></path>
</svg>
